<mxfile host="www.draw.io" modified="2019-12-05T15:18:51.230Z" agent="Mozilla/5.0 (Windows NT 10.0; Win64; x64) AppleWebKit/537.36 (KHTML, like Gecko) Chrome/78.0.3904.108 Safari/537.36" etag="F2Bz3xHtpKRHqgPF7bzW" version="12.3.7" type="github" pages="1">
  <diagram name="Page-1" id="c4acf3e9-155e-7222-9cf6-157b1a14988f">
    <mxGraphModel dx="2210" dy="802" grid="1" gridSize="10" guides="1" tooltips="1" connect="1" arrows="1" fold="1" page="1" pageScale="1" pageWidth="850" pageHeight="1100" background="#ffffff" math="0" shadow="0">
      <root>
        <mxCell id="0"/>
        <mxCell id="1" parent="0"/>
        <mxCell id="RdGBtFwpb-ngHzn6X-1z-10" style="edgeStyle=orthogonalEdgeStyle;rounded=0;orthogonalLoop=1;jettySize=auto;html=1;entryX=0;entryY=0.5;entryDx=0;entryDy=0;" parent="1" target="RdGBtFwpb-ngHzn6X-1z-11" edge="1">
          <mxGeometry relative="1" as="geometry">
            <mxPoint x="615" y="220" as="targetPoint"/>
            <mxPoint x="415" y="220" as="sourcePoint"/>
            <Array as="points">
              <mxPoint x="415" y="210"/>
            </Array>
          </mxGeometry>
        </mxCell>
        <mxCell id="RdGBtFwpb-ngHzn6X-1z-4" value="" style="edgeStyle=orthogonalEdgeStyle;rounded=0;orthogonalLoop=1;jettySize=auto;html=1;entryX=0.5;entryY=0;entryDx=0;entryDy=0;" parent="1" source="RdGBtFwpb-ngHzn6X-1z-1" target="RdGBtFwpb-ngHzn6X-1z-6" edge="1">
          <mxGeometry relative="1" as="geometry">
            <mxPoint x="415" y="250" as="targetPoint"/>
          </mxGeometry>
        </mxCell>
        <mxCell id="RdGBtFwpb-ngHzn6X-1z-1" value="任意页面" style="rounded=0;whiteSpace=wrap;html=1;fillColor=#d5e8d4;strokeColor=#82b366;" parent="1" vertex="1">
          <mxGeometry x="355" y="110" width="120" height="60" as="geometry"/>
        </mxCell>
        <mxCell id="RdGBtFwpb-ngHzn6X-1z-16" value="" style="edgeStyle=orthogonalEdgeStyle;rounded=0;orthogonalLoop=1;jettySize=auto;html=1;entryX=0.5;entryY=0;entryDx=0;entryDy=0;" parent="1" source="RdGBtFwpb-ngHzn6X-1z-6" target="RdGBtFwpb-ngHzn6X-1z-19" edge="1">
          <mxGeometry relative="1" as="geometry">
            <mxPoint x="415" y="630" as="targetPoint"/>
          </mxGeometry>
        </mxCell>
        <mxCell id="RdGBtFwpb-ngHzn6X-1z-25" style="edgeStyle=orthogonalEdgeStyle;rounded=0;orthogonalLoop=1;jettySize=auto;html=1;" parent="1" source="RdGBtFwpb-ngHzn6X-1z-6" target="RdGBtFwpb-ngHzn6X-1z-23" edge="1">
          <mxGeometry relative="1" as="geometry"/>
        </mxCell>
        <mxCell id="RdGBtFwpb-ngHzn6X-1z-6" value="检查是否由&lt;br&gt;localstorage.token" style="rhombus;whiteSpace=wrap;html=1;fillColor=#d5e8d4;strokeColor=#82b366;" parent="1" vertex="1">
          <mxGeometry x="295" y="280" width="240" height="150" as="geometry"/>
        </mxCell>
        <mxCell id="RdGBtFwpb-ngHzn6X-1z-14" value="" style="edgeStyle=orthogonalEdgeStyle;rounded=0;orthogonalLoop=1;jettySize=auto;html=1;entryX=1;entryY=0.5;entryDx=0;entryDy=0;exitX=0.5;exitY=1;exitDx=0;exitDy=0;" parent="1" source="RdGBtFwpb-ngHzn6X-1z-11" target="RdGBtFwpb-ngHzn6X-1z-31" edge="1">
          <mxGeometry relative="1" as="geometry">
            <mxPoint x="710" y="350" as="targetPoint"/>
            <Array as="points">
              <mxPoint x="700" y="260"/>
              <mxPoint x="700" y="1060"/>
            </Array>
          </mxGeometry>
        </mxCell>
        <mxCell id="RdGBtFwpb-ngHzn6X-1z-11" value="&lt;span style=&quot;white-space: normal&quot;&gt;localstorage.to_url记录用户来的链接&lt;/span&gt;" style="shape=parallelogram;perimeter=parallelogramPerimeter;whiteSpace=wrap;html=1;fillColor=#d5e8d4;strokeColor=#82b366;" parent="1" vertex="1">
          <mxGeometry x="570" y="160" width="270" height="100" as="geometry"/>
        </mxCell>
        <mxCell id="RdGBtFwpb-ngHzn6X-1z-17" value="存在" style="text;html=1;align=center;verticalAlign=middle;resizable=0;points=[];;autosize=1;" parent="1" vertex="1">
          <mxGeometry x="425" y="630" width="40" height="20" as="geometry"/>
        </mxCell>
        <mxCell id="RdGBtFwpb-ngHzn6X-1z-21" style="edgeStyle=orthogonalEdgeStyle;rounded=0;orthogonalLoop=1;jettySize=auto;html=1;" parent="1" source="RdGBtFwpb-ngHzn6X-1z-19" target="RdGBtFwpb-ngHzn6X-1z-20" edge="1">
          <mxGeometry relative="1" as="geometry">
            <mxPoint x="415" y="820" as="targetPoint"/>
          </mxGeometry>
        </mxCell>
        <mxCell id="RdGBtFwpb-ngHzn6X-1z-19" value="进入author" style="rounded=0;whiteSpace=wrap;html=1;fillColor=#d5e8d4;strokeColor=#82b366;" parent="1" vertex="1">
          <mxGeometry x="355" y="620" width="120" height="60" as="geometry"/>
        </mxCell>
        <mxCell id="RdGBtFwpb-ngHzn6X-1z-22" style="edgeStyle=orthogonalEdgeStyle;rounded=0;orthogonalLoop=1;jettySize=auto;html=1;entryX=0;entryY=0.5;entryDx=0;entryDy=0;" parent="1" source="RdGBtFwpb-ngHzn6X-1z-20" target="RdGBtFwpb-ngHzn6X-1z-23" edge="1">
          <mxGeometry relative="1" as="geometry">
            <mxPoint x="65" y="450" as="targetPoint"/>
            <mxPoint x="295" y="725" as="sourcePoint"/>
            <Array as="points">
              <mxPoint x="50" y="725"/>
              <mxPoint x="50" y="355"/>
            </Array>
          </mxGeometry>
        </mxCell>
        <mxCell id="RdGBtFwpb-ngHzn6X-1z-30" value="" style="edgeStyle=orthogonalEdgeStyle;rounded=0;orthogonalLoop=1;jettySize=auto;html=1;entryX=0.5;entryY=0;entryDx=0;entryDy=0;" parent="1" source="RdGBtFwpb-ngHzn6X-1z-20" target="RdGBtFwpb-ngHzn6X-1z-31" edge="1">
          <mxGeometry relative="1" as="geometry">
            <mxPoint x="410" y="1110" as="targetPoint"/>
          </mxGeometry>
        </mxCell>
        <mxCell id="RdGBtFwpb-ngHzn6X-1z-20" value="服务器验证token" style="rhombus;whiteSpace=wrap;html=1;fillColor=#dae8fc;strokeColor=#6c8ebf;" parent="1" vertex="1">
          <mxGeometry x="295" y="820" width="240" height="150" as="geometry"/>
        </mxCell>
        <mxCell id="RdGBtFwpb-ngHzn6X-1z-27" value="" style="edgeStyle=orthogonalEdgeStyle;rounded=0;orthogonalLoop=1;jettySize=auto;html=1;" parent="1" source="RdGBtFwpb-ngHzn6X-1z-23" target="RdGBtFwpb-ngHzn6X-1z-26" edge="1">
          <mxGeometry relative="1" as="geometry"/>
        </mxCell>
        <mxCell id="RdGBtFwpb-ngHzn6X-1z-23" value="跳转微信授权" style="rounded=0;whiteSpace=wrap;html=1;fillColor=#d5e8d4;strokeColor=#82b366;" parent="1" vertex="1">
          <mxGeometry x="130" y="325" width="120" height="60" as="geometry"/>
        </mxCell>
        <mxCell id="RdGBtFwpb-ngHzn6X-1z-28" style="edgeStyle=orthogonalEdgeStyle;rounded=0;orthogonalLoop=1;jettySize=auto;html=1;exitX=0.5;exitY=1;exitDx=0;exitDy=0;" parent="1" source="RdGBtFwpb-ngHzn6X-1z-26" target="RdGBtFwpb-ngHzn6X-1z-19" edge="1">
          <mxGeometry relative="1" as="geometry">
            <Array as="points">
              <mxPoint x="190" y="650"/>
            </Array>
          </mxGeometry>
        </mxCell>
        <mxCell id="RdGBtFwpb-ngHzn6X-1z-26" value="获取用户信息，没有生成一条用户记录，有则根据用户信息成token记录" style="rounded=0;whiteSpace=wrap;html=1;fillColor=#dae8fc;strokeColor=#6c8ebf;" parent="1" vertex="1">
          <mxGeometry x="130" y="470" width="120" height="60" as="geometry"/>
        </mxCell>
        <mxCell id="RdGBtFwpb-ngHzn6X-1z-24" value="验证失败" style="text;html=1;align=center;verticalAlign=middle;resizable=0;points=[];;autosize=1;" parent="1" vertex="1">
          <mxGeometry x="165" y="900" width="60" height="20" as="geometry"/>
        </mxCell>
        <mxCell id="RdGBtFwpb-ngHzn6X-1z-33" value="" style="edgeStyle=orthogonalEdgeStyle;rounded=0;orthogonalLoop=1;jettySize=auto;html=1;" parent="1" source="RdGBtFwpb-ngHzn6X-1z-31" target="RdGBtFwpb-ngHzn6X-1z-32" edge="1">
          <mxGeometry relative="1" as="geometry"/>
        </mxCell>
        <mxCell id="RdGBtFwpb-ngHzn6X-1z-31" value="存储vuex，跳转to_url" style="rounded=0;whiteSpace=wrap;html=1;fillColor=#d5e8d4;strokeColor=#82b366;" parent="1" vertex="1">
          <mxGeometry x="355" y="1030" width="120" height="60" as="geometry"/>
        </mxCell>
        <mxCell id="RdGBtFwpb-ngHzn6X-1z-32" value="存储vuex，跳转to_url" style="rounded=0;whiteSpace=wrap;html=1;fillColor=#d5e8d4;strokeColor=#82b366;" parent="1" vertex="1">
          <mxGeometry x="355" y="1170" width="120" height="60" as="geometry"/>
        </mxCell>
        <mxCell id="RdGBtFwpb-ngHzn6X-1z-34" value="不存在" style="text;html=1;align=center;verticalAlign=middle;resizable=0;points=[];;autosize=1;" parent="1" vertex="1">
          <mxGeometry x="250" y="325" width="50" height="20" as="geometry"/>
        </mxCell>
        <mxCell id="RdGBtFwpb-ngHzn6X-1z-36" value="&lt;h1&gt;大问题&lt;/h1&gt;&lt;div&gt;这个生成的token如何返回给用户？&lt;/div&gt;&lt;div&gt;暴露到url里面？？？？&lt;/div&gt;" style="text;html=1;strokeColor=none;fillColor=none;spacing=5;spacingTop=-20;whiteSpace=wrap;overflow=hidden;rounded=0;" parent="1" vertex="1">
          <mxGeometry x="205" y="540" width="190" height="120" as="geometry"/>
        </mxCell>
        <mxCell id="RdGBtFwpb-ngHzn6X-1z-37" value="方案2" style="text;strokeColor=none;fillColor=none;html=1;fontSize=24;fontStyle=1;verticalAlign=middle;align=center;" parent="1" vertex="1">
          <mxGeometry x="365" y="30" width="100" height="40" as="geometry"/>
        </mxCell>
        <mxCell id="hU68iRJ8JovTnebR8NAB-27" value="" style="edgeStyle=orthogonalEdgeStyle;rounded=0;orthogonalLoop=1;jettySize=auto;html=1;entryX=0.5;entryY=0;entryDx=0;entryDy=0;" edge="1" parent="1" source="hU68iRJ8JovTnebR8NAB-28">
          <mxGeometry relative="1" as="geometry">
            <mxPoint x="-515" y="290" as="targetPoint"/>
          </mxGeometry>
        </mxCell>
        <mxCell id="hU68iRJ8JovTnebR8NAB-28" value="任意页面" style="rounded=0;whiteSpace=wrap;html=1;fillColor=#d5e8d4;strokeColor=#82b366;" vertex="1" parent="1">
          <mxGeometry x="-575" y="120" width="120" height="60" as="geometry"/>
        </mxCell>
        <mxCell id="hU68iRJ8JovTnebR8NAB-50" value="方案1" style="text;strokeColor=none;fillColor=none;html=1;fontSize=24;fontStyle=1;verticalAlign=middle;align=center;" vertex="1" parent="1">
          <mxGeometry x="-565" y="40" width="100" height="40" as="geometry"/>
        </mxCell>
        <mxCell id="hU68iRJ8JovTnebR8NAB-55" value="" style="edgeStyle=orthogonalEdgeStyle;rounded=0;orthogonalLoop=1;jettySize=auto;html=1;" edge="1" parent="1" source="hU68iRJ8JovTnebR8NAB-52">
          <mxGeometry relative="1" as="geometry">
            <mxPoint x="-515" y="487.5" as="targetPoint"/>
          </mxGeometry>
        </mxCell>
        <mxCell id="hU68iRJ8JovTnebR8NAB-59" value="" style="edgeStyle=orthogonalEdgeStyle;rounded=0;orthogonalLoop=1;jettySize=auto;html=1;" edge="1" parent="1" source="hU68iRJ8JovTnebR8NAB-60">
          <mxGeometry relative="1" as="geometry">
            <mxPoint x="-297.5" y="355" as="targetPoint"/>
          </mxGeometry>
        </mxCell>
        <mxCell id="hU68iRJ8JovTnebR8NAB-52" value="页面不需要验证并且不是跳向login" style="rhombus;whiteSpace=wrap;html=1;" vertex="1" parent="1">
          <mxGeometry x="-652.5" y="302.5" width="275" height="105" as="geometry"/>
        </mxCell>
        <mxCell id="hU68iRJ8JovTnebR8NAB-56" value="同时成立" style="text;html=1;align=center;verticalAlign=middle;resizable=0;points=[];;autosize=1;" vertex="1" parent="1">
          <mxGeometry x="-510" y="445" width="60" height="20" as="geometry"/>
        </mxCell>
        <mxCell id="hU68iRJ8JovTnebR8NAB-57" value="next" style="rounded=0;whiteSpace=wrap;html=1;" vertex="1" parent="1">
          <mxGeometry x="-290" y="325" width="120" height="60" as="geometry"/>
        </mxCell>
        <mxCell id="hU68iRJ8JovTnebR8NAB-60" value="不成立" style="text;html=1;align=center;verticalAlign=middle;resizable=0;points=[];;autosize=1;" vertex="1" parent="1">
          <mxGeometry x="-370" y="345" width="50" height="20" as="geometry"/>
        </mxCell>
        <mxCell id="hU68iRJ8JovTnebR8NAB-61" value="" style="edgeStyle=orthogonalEdgeStyle;rounded=0;orthogonalLoop=1;jettySize=auto;html=1;" edge="1" parent="1" source="hU68iRJ8JovTnebR8NAB-52" target="hU68iRJ8JovTnebR8NAB-60">
          <mxGeometry relative="1" as="geometry">
            <mxPoint x="-377.5" y="355" as="sourcePoint"/>
            <mxPoint x="-297.5" y="355" as="targetPoint"/>
          </mxGeometry>
        </mxCell>
        <mxCell id="hU68iRJ8JovTnebR8NAB-64" value="否" style="edgeStyle=orthogonalEdgeStyle;rounded=0;orthogonalLoop=1;jettySize=auto;html=1;" edge="1" parent="1" source="hU68iRJ8JovTnebR8NAB-62">
          <mxGeometry relative="1" as="geometry">
            <mxPoint x="-515" y="630" as="targetPoint"/>
          </mxGeometry>
        </mxCell>
        <mxCell id="hU68iRJ8JovTnebR8NAB-66" value="" style="edgeStyle=orthogonalEdgeStyle;rounded=0;orthogonalLoop=1;jettySize=auto;html=1;" edge="1" parent="1" source="hU68iRJ8JovTnebR8NAB-62">
          <mxGeometry relative="1" as="geometry">
            <mxPoint x="-340" y="520" as="targetPoint"/>
          </mxGeometry>
        </mxCell>
        <mxCell id="hU68iRJ8JovTnebR8NAB-62" value="vuex和localstorage都没有值" style="rounded=0;whiteSpace=wrap;html=1;" vertex="1" parent="1">
          <mxGeometry x="-575" y="490" width="120" height="60" as="geometry"/>
        </mxCell>
        <mxCell id="hU68iRJ8JovTnebR8NAB-65" value="微信授权" style="rounded=0;whiteSpace=wrap;html=1;" vertex="1" parent="1">
          <mxGeometry x="-100" y="490" width="120" height="60" as="geometry"/>
        </mxCell>
        <mxCell id="hU68iRJ8JovTnebR8NAB-67" value="是" style="text;html=1;align=center;verticalAlign=middle;resizable=0;points=[];;autosize=1;" vertex="1" parent="1">
          <mxGeometry x="-425" y="514" width="30" height="20" as="geometry"/>
        </mxCell>
        <mxCell id="hU68iRJ8JovTnebR8NAB-70" style="edgeStyle=orthogonalEdgeStyle;rounded=0;orthogonalLoop=1;jettySize=auto;html=1;exitX=1;exitY=0.5;exitDx=0;exitDy=0;entryX=0;entryY=0.5;entryDx=0;entryDy=0;" edge="1" parent="1" source="hU68iRJ8JovTnebR8NAB-69" target="hU68iRJ8JovTnebR8NAB-65">
          <mxGeometry relative="1" as="geometry"/>
        </mxCell>
        <mxCell id="hU68iRJ8JovTnebR8NAB-72" value="否" style="edgeStyle=orthogonalEdgeStyle;rounded=0;orthogonalLoop=1;jettySize=auto;html=1;" edge="1" parent="1" source="hU68iRJ8JovTnebR8NAB-69" target="hU68iRJ8JovTnebR8NAB-57">
          <mxGeometry x="0.28" y="-114" relative="1" as="geometry">
            <mxPoint x="-44" y="90" as="offset"/>
          </mxGeometry>
        </mxCell>
        <mxCell id="hU68iRJ8JovTnebR8NAB-69" value="是否跳转到login" style="rhombus;whiteSpace=wrap;html=1;" vertex="1" parent="1">
          <mxGeometry x="-330" y="475" width="130" height="90" as="geometry"/>
        </mxCell>
        <mxCell id="hU68iRJ8JovTnebR8NAB-71" value="是" style="text;html=1;align=center;verticalAlign=middle;resizable=0;points=[];;autosize=1;" vertex="1" parent="1">
          <mxGeometry x="-280" y="430" width="30" height="20" as="geometry"/>
        </mxCell>
        <mxCell id="hU68iRJ8JovTnebR8NAB-75" value="否" style="edgeStyle=orthogonalEdgeStyle;rounded=0;orthogonalLoop=1;jettySize=auto;html=1;" edge="1" parent="1" target="hU68iRJ8JovTnebR8NAB-77">
          <mxGeometry relative="1" as="geometry">
            <mxPoint x="-470" y="673" as="sourcePoint"/>
            <mxPoint x="-390" y="673" as="targetPoint"/>
          </mxGeometry>
        </mxCell>
        <mxCell id="hU68iRJ8JovTnebR8NAB-80" value="" style="edgeStyle=orthogonalEdgeStyle;rounded=0;orthogonalLoop=1;jettySize=auto;html=1;" edge="1" parent="1" source="hU68iRJ8JovTnebR8NAB-76">
          <mxGeometry relative="1" as="geometry">
            <mxPoint x="-515" y="793" as="targetPoint"/>
          </mxGeometry>
        </mxCell>
        <mxCell id="hU68iRJ8JovTnebR8NAB-76" value="&lt;span style=&quot;white-space: normal&quot;&gt;vueX是否有值&lt;/span&gt;" style="rhombus;whiteSpace=wrap;html=1;" vertex="1" parent="1">
          <mxGeometry x="-555" y="633" width="80" height="80" as="geometry"/>
        </mxCell>
        <mxCell id="hU68iRJ8JovTnebR8NAB-78" style="edgeStyle=orthogonalEdgeStyle;rounded=0;orthogonalLoop=1;jettySize=auto;html=1;" edge="1" parent="1" source="hU68iRJ8JovTnebR8NAB-77" target="hU68iRJ8JovTnebR8NAB-57">
          <mxGeometry relative="1" as="geometry">
            <Array as="points">
              <mxPoint x="-150" y="690"/>
              <mxPoint x="-150" y="355"/>
            </Array>
          </mxGeometry>
        </mxCell>
        <mxCell id="hU68iRJ8JovTnebR8NAB-77" value="异步获取值给到vuex" style="rounded=0;whiteSpace=wrap;html=1;" vertex="1" parent="1">
          <mxGeometry x="-370" y="660" width="120" height="60" as="geometry"/>
        </mxCell>
        <mxCell id="hU68iRJ8JovTnebR8NAB-82" value="next" style="rounded=0;whiteSpace=wrap;html=1;" vertex="1" parent="1">
          <mxGeometry x="-580" y="796" width="120" height="60" as="geometry"/>
        </mxCell>
      </root>
    </mxGraphModel>
  </diagram>
</mxfile>
